<svg xmlns="http://www.w3.org/2000/svg" viewBox="0 0 200 200" fill="none">
  <!-- Main stems from top-left corner -->
  <path d="M4 4 C18 20 38 38 62 58 C78 72 92 86 100 102" stroke="#9DB898" stroke-width="2.2" stroke-linecap="round"/>
  <path d="M4 4 C20 18 38 38 58 62 C72 78 86 92 102 100" stroke="#9DB898" stroke-width="2.2" stroke-linecap="round"/>
  <!-- Sub-branches -->
  <path d="M38 32 C30 22 22 16 14 10" stroke="#9DB898" stroke-width="1.5" stroke-linecap="round"/>
  <path d="M32 38 C22 30 16 22 10 14" stroke="#9DB898" stroke-width="1.5" stroke-linecap="round"/>
  <path d="M74 60 C80 48 88 40 96 32" stroke="#9DB898" stroke-width="1.4" stroke-linecap="round"/>
  <path d="M60 74 C48 80 40 88 32 96" stroke="#9DB898" stroke-width="1.4" stroke-linecap="round"/>
  <path d="M24 18 C30 10 38 6 46 4" stroke="#9DB898" stroke-width="1.2" stroke-linecap="round"/>
  <path d="M18 24 C10 30 6 38 4 46" stroke="#9DB898" stroke-width="1.2" stroke-linecap="round"/>
  <!-- Leaves -->
  <path d="M14 10 C6 4 2 8 6 14 C9 12 12 11 14 10Z" fill="#8FBF91" opacity=".8"/>
  <path d="M10 14 C4 6 8 2 14 6 C12 9 11 12 10 14Z" fill="#9EC89E" opacity=".75"/>
  <path d="M96 32 C88 22 96 15 102 24 C100 28 98 31 96 32Z" fill="#8FBF91" opacity=".72"/>
  <path d="M32 96 C22 88 15 96 24 102 C28 100 31 98 32 96Z" fill="#8FBF91" opacity=".72"/>
  <path d="M52 40 C44 30 53 22 60 32 C58 36 55 39 52 40Z" fill="#9EC89E" opacity=".7"/>
  <path d="M40 52 C30 44 22 53 32 60 C36 58 39 55 40 52Z" fill="#9EC89E" opacity=".7"/>
  <path d="M46 4 C42 -4 50 -5 52 3 C50 4 48 5 46 4Z" fill="#8FBF91" opacity=".6"/>
  <path d="M4 46 C-4 42 -5 50 3 52 C4 50 5 48 4 46Z" fill="#8FBF91" opacity=".6"/>
  <path d="M70 70 C62 60 70 53 76 62 C74 66 72 69 70 70Z" fill="#9EC89E" opacity=".58"/>
  <path d="M70 70 C60 62 53 70 62 76 C66 74 69 72 70 70Z" fill="#9EC89E" opacity=".58"/>
  <!-- Main rose at top-left corner (10 petals) -->
  <ellipse cx="9" cy="9" rx="14" ry="8.5" fill="#F2A0B5" opacity=".9" transform="rotate(0 9 9)"/>
  <ellipse cx="9" cy="9" rx="14" ry="8.5" fill="#EE8EA8" opacity=".9" transform="rotate(36 9 9)"/>
  <ellipse cx="9" cy="9" rx="14" ry="8.5" fill="#F2A0B5" opacity=".9" transform="rotate(72 9 9)"/>
  <ellipse cx="9" cy="9" rx="14" ry="8.5" fill="#EE8EA8" opacity=".9" transform="rotate(108 9 9)"/>
  <ellipse cx="9" cy="9" rx="14" ry="8.5" fill="#F2A0B5" opacity=".9" transform="rotate(144 9 9)"/>
  <ellipse cx="9" cy="9" rx="10" ry="6" fill="#E87090" opacity=".86" transform="rotate(18 9 9)"/>
  <ellipse cx="9" cy="9" rx="10" ry="6" fill="#E87090" opacity=".86" transform="rotate(54 9 9)"/>
  <ellipse cx="9" cy="9" rx="10" ry="6" fill="#E87090" opacity=".86" transform="rotate(90 9 9)"/>
  <ellipse cx="9" cy="9" rx="10" ry="6" fill="#E87090" opacity=".86" transform="rotate(126 9 9)"/>
  <ellipse cx="9" cy="9" rx="10" ry="6" fill="#E87090" opacity=".86" transform="rotate(162 9 9)"/>
  <circle cx="9" cy="9" r="6.5" fill="#F7C04A" opacity=".96"/>
  <circle cx="9" cy="9" r="3.5" fill="#E8A020" opacity=".9"/>
  <circle cx="9" cy="9" r="1.8" fill="#B06000" opacity=".8"/>
  <!-- Medium flower at right branch end -->
  <ellipse cx="96" cy="32" rx="9" ry="5.5" fill="#F9C0D0" opacity=".85" transform="rotate(0 96 32)"/>
  <ellipse cx="96" cy="32" rx="9" ry="5.5" fill="#F9C0D0" opacity=".85" transform="rotate(60 96 32)"/>
  <ellipse cx="96" cy="32" rx="9" ry="5.5" fill="#F9C0D0" opacity=".85" transform="rotate(120 96 32)"/>
  <ellipse cx="96" cy="32" rx="6" ry="3.5" fill="#F4A8BA" opacity=".8" transform="rotate(30 96 32)"/>
  <ellipse cx="96" cy="32" rx="6" ry="3.5" fill="#F4A8BA" opacity=".8" transform="rotate(90 96 32)"/>
  <ellipse cx="96" cy="32" rx="6" ry="3.5" fill="#F4A8BA" opacity=".8" transform="rotate(150 96 32)"/>
  <circle cx="96" cy="32" r="4.5" fill="#F7C04A" opacity=".92"/>
  <circle cx="96" cy="32" r="2" fill="#E8A020" opacity=".8"/>
  <!-- Medium flower at down branch end -->
  <ellipse cx="32" cy="96" rx="9" ry="5.5" fill="#F4A8BA" opacity=".82" transform="rotate(30 32 96)"/>
  <ellipse cx="32" cy="96" rx="9" ry="5.5" fill="#F4A8BA" opacity=".82" transform="rotate(90 32 96)"/>
  <ellipse cx="32" cy="96" rx="9" ry="5.5" fill="#F4A8BA" opacity=".82" transform="rotate(150 32 96)"/>
  <ellipse cx="32" cy="96" rx="6" ry="3.5" fill="#EE8EA8" opacity=".78" transform="rotate(0 32 96)"/>
  <ellipse cx="32" cy="96" rx="6" ry="3.5" fill="#EE8EA8" opacity=".78" transform="rotate(60 32 96)"/>
  <ellipse cx="32" cy="96" rx="6" ry="3.5" fill="#EE8EA8" opacity=".78" transform="rotate(120 32 96)"/>
  <circle cx="32" cy="96" r="4.5" fill="#F7C04A" opacity=".92"/>
  <circle cx="32" cy="96" r="2" fill="#E8A020" opacity=".8"/>
  <!-- Small flowers at branch tips -->
  <ellipse cx="13" cy="9" rx="5.5" ry="3.5" fill="#F9C4D0" opacity=".82" transform="rotate(0 13 9)"/>
  <ellipse cx="13" cy="9" rx="5.5" ry="3.5" fill="#F9C4D0" opacity=".82" transform="rotate(60 13 9)"/>
  <ellipse cx="13" cy="9" rx="5.5" ry="3.5" fill="#F9C4D0" opacity=".82" transform="rotate(120 13 9)"/>
  <circle cx="13" cy="9" r="3" fill="#F7C04A" opacity=".88"/>
  <ellipse cx="9" cy="13" rx="5.5" ry="3.5" fill="#FDDDE8" opacity=".78" transform="rotate(0 9 13)"/>
  <ellipse cx="9" cy="13" rx="5.5" ry="3.5" fill="#FDDDE8" opacity=".78" transform="rotate(60 9 13)"/>
  <ellipse cx="9" cy="13" rx="5.5" ry="3.5" fill="#FDDDE8" opacity=".78" transform="rotate(120 9 13)"/>
  <circle cx="9" cy="13" r="3" fill="#F7C04A" opacity=".85"/>
  <!-- Scattered tiny buds along stems -->
  <circle cx="74" cy="60" r="5.5" fill="#F9C4D0" opacity=".5"/>
  <circle cx="60" cy="74" r="4.5" fill="#F4A7B9" opacity=".45"/>
  <circle cx="102" cy="100" r="5" fill="#F4A7B9" opacity=".28"/>
  <circle cx="100" cy="102" r="3.5" fill="#F9C4D0" opacity=".22"/>
</svg>
