<svg xmlns="http://www.w3.org/2000/svg" viewBox="0 0 200 200" fill="none">

  <!-- MAIN STEMS from top-left corner -->
  <path d="M2 2 C20 22 44 50 68 78 C84 96 96 116 102 138"
        stroke="#9DB898" stroke-width="2.4" stroke-linecap="round" opacity=".9"/>
  <path d="M2 2 C22 20 50 44 78 68 C96 84 116 96 138 102"
        stroke="#9DB898" stroke-width="2.4" stroke-linecap="round" opacity=".9"/>

  <!-- Branch stems -->
  <path d="M40 36 C30 24 20 16 10 8"  stroke="#9DB898" stroke-width="1.8" stroke-linecap="round" opacity=".75"/>
  <path d="M36 40 C24 30 16 20 8 10"  stroke="#9DB898" stroke-width="1.8" stroke-linecap="round" opacity=".75"/>
  <path d="M72 64 C80 52 90 42 102 30" stroke="#9DB898" stroke-width="1.5" stroke-linecap="round" opacity=".7"/>
  <path d="M64 72 C52 80 42 90 30 102" stroke="#9DB898" stroke-width="1.5" stroke-linecap="round" opacity=".7"/>
  <path d="M50 46 C44 38 50 30 56 40"  stroke="#9DB898" stroke-width="1.2" stroke-linecap="round" opacity=".55"/>
  <path d="M46 50 C38 44 30 50 40 56"  stroke="#9DB898" stroke-width="1.2" stroke-linecap="round" opacity=".55"/>

  <!-- LEAVES -->
  <path d="M10 8 C3 2 0 7 4 14 C7 12 9 10 10 8Z"            fill="#7EB87E" opacity=".82"/>
  <path d="M8 10 C2 3 7 0 14 4 C12 7 10 9 8 10Z"            fill="#9EC89E" opacity=".78"/>
  <path d="M102 30 C92 18 100 12 108 22 C106 26 104 29 102 30Z" fill="#7EB87E" opacity=".74"/>
  <path d="M30 102 C18 92 12 100 22 108 C26 106 29 104 30 102Z" fill="#7EB87E" opacity=".74"/>
  <path d="M56 40 C48 31 56 24 63 34 C61 37 59 39 56 40Z"   fill="#9EC89E" opacity=".70"/>
  <path d="M40 56 C31 48 24 56 34 63 C37 61 39 59 40 56Z"   fill="#9EC89E" opacity=".70"/>
  <path d="M80 80 C72 70 78 62 86 72 C84 76 82 79 80 80Z"   fill="#9EC89E" opacity=".62"/>
  <path d="M80 80 C70 72 62 78 72 86 C76 84 79 82 80 80Z"   fill="#9EC89E" opacity=".62"/>

  <!-- MAIN ROSE at (22,22) — petals fully inside viewBox -->
  <ellipse cx="22" cy="22" rx="17" ry="9"   fill="#F2A0B5" opacity=".88" transform="rotate(0 22 22)"/>
  <ellipse cx="22" cy="22" rx="17" ry="9"   fill="#EC90A8" opacity=".88" transform="rotate(36 22 22)"/>
  <ellipse cx="22" cy="22" rx="17" ry="9"   fill="#F2A0B5" opacity=".88" transform="rotate(72 22 22)"/>
  <ellipse cx="22" cy="22" rx="17" ry="9"   fill="#EC90A8" opacity=".88" transform="rotate(108 22 22)"/>
  <ellipse cx="22" cy="22" rx="17" ry="9"   fill="#F2A0B5" opacity=".88" transform="rotate(144 22 22)"/>
  <ellipse cx="22" cy="22" rx="11" ry="6"   fill="#E87090" opacity=".92" transform="rotate(18 22 22)"/>
  <ellipse cx="22" cy="22" rx="11" ry="6"   fill="#E07090" opacity=".92" transform="rotate(54 22 22)"/>
  <ellipse cx="22" cy="22" rx="11" ry="6"   fill="#E87090" opacity=".92" transform="rotate(90 22 22)"/>
  <ellipse cx="22" cy="22" rx="11" ry="6"   fill="#E07090" opacity=".92" transform="rotate(126 22 22)"/>
  <ellipse cx="22" cy="22" rx="11" ry="6"   fill="#E87090" opacity=".92" transform="rotate(162 22 22)"/>
  <circle cx="22" cy="22" r="6.5" fill="#F8D060" opacity=".97"/>
  <circle cx="22" cy="22" r="4"   fill="#E09020" opacity=".92"/>
  <circle cx="22" cy="22" r="2"   fill="#B06010" opacity=".88"/>

  <!-- BUD at (96, 30) — right branch tip -->
  <ellipse cx="96" cy="30" rx="11" ry="6.5" fill="#F9C4D0" opacity=".82" transform="rotate(0 96 30)"/>
  <ellipse cx="96" cy="30" rx="11" ry="6.5" fill="#F4AABF" opacity=".82" transform="rotate(60 96 30)"/>
  <ellipse cx="96" cy="30" rx="11" ry="6.5" fill="#F9C4D0" opacity=".82" transform="rotate(120 96 30)"/>
  <ellipse cx="96" cy="30" rx="7"  ry="4.5" fill="#E87090" opacity=".88" transform="rotate(30 96 30)"/>
  <ellipse cx="96" cy="30" rx="7"  ry="4.5" fill="#E87090" opacity=".88" transform="rotate(90 96 30)"/>
  <ellipse cx="96" cy="30" rx="7"  ry="4.5" fill="#E87090" opacity=".88" transform="rotate(150 96 30)"/>
  <circle cx="96" cy="30" r="4"   fill="#F7C04A" opacity=".94"/>
  <circle cx="96" cy="30" r="2.2" fill="#D88020" opacity=".88"/>

  <!-- BUD at (30, 96) — bottom branch tip -->
  <ellipse cx="30" cy="96" rx="11" ry="6.5" fill="#F9C4D0" opacity=".80" transform="rotate(0 30 96)"/>
  <ellipse cx="30" cy="96" rx="11" ry="6.5" fill="#F4AABF" opacity=".80" transform="rotate(60 30 96)"/>
  <ellipse cx="30" cy="96" rx="11" ry="6.5" fill="#F9C4D0" opacity=".80" transform="rotate(120 30 96)"/>
  <ellipse cx="30" cy="96" rx="7"  ry="4.5" fill="#E87090" opacity=".85" transform="rotate(30 30 96)"/>
  <ellipse cx="30" cy="96" rx="7"  ry="4.5" fill="#E87090" opacity=".85" transform="rotate(90 30 96)"/>
  <circle cx="30" cy="96" r="4"   fill="#F7C04A" opacity=".92"/>
  <circle cx="30" cy="96" r="2.2" fill="#D88020" opacity=".85"/>

  <!-- SMALL BUD at (76, 64) -->
  <ellipse cx="76" cy="64" rx="8" ry="5" fill="#FDDDE6" opacity=".68" transform="rotate(0 76 64)"/>
  <ellipse cx="76" cy="64" rx="8" ry="5" fill="#FDDDE6" opacity=".68" transform="rotate(72 76 64)"/>
  <ellipse cx="76" cy="64" rx="8" ry="5" fill="#FDDDE6" opacity=".68" transform="rotate(144 76 64)"/>
  <circle cx="76" cy="64" r="3.5" fill="#F7C04A" opacity=".78"/>

  <!-- SMALL BUD at (64, 76) -->
  <ellipse cx="64" cy="76" rx="8" ry="5" fill="#FDDDE6" opacity=".64" transform="rotate(0 64 76)"/>
  <ellipse cx="64" cy="76" rx="8" ry="5" fill="#FDDDE6" opacity=".64" transform="rotate(72 64 76)"/>
  <circle cx="64" cy="76" r="3.5" fill="#F7C04A" opacity=".74"/>

  <!-- SMALL BUD at (28, 36) on branch tip -->
  <ellipse cx="28" cy="36" rx="7" ry="4.5" fill="#F9C4D0" opacity=".70" transform="rotate(0 28 36)"/>
  <ellipse cx="28" cy="36" rx="7" ry="4.5" fill="#F9C4D0" opacity=".70" transform="rotate(60 28 36)"/>
  <ellipse cx="28" cy="36" rx="7" ry="4.5" fill="#F9C4D0" opacity=".70" transform="rotate(120 28 36)"/>
  <circle cx="28" cy="36" r="3"   fill="#F7C04A" opacity=".82"/>

  <!-- SMALL BUD at (36, 28) on branch tip -->
  <ellipse cx="36" cy="28" rx="7" ry="4.5" fill="#F9C4D0" opacity=".68" transform="rotate(0 36 28)"/>
  <ellipse cx="36" cy="28" rx="7" ry="4.5" fill="#F9C4D0" opacity=".68" transform="rotate(60 36 28)"/>
  <circle cx="36" cy="28" r="3"   fill="#F7C04A" opacity=".80"/>

  <!-- TINY ACCENT DOTS -->
  <circle cx="52" cy="110" r="2.5" fill="#F4A7B9" opacity=".42"/>
  <circle cx="110" cy="52"  r="2.5" fill="#F4A7B9" opacity=".38"/>
  <circle cx="130" cy="90"  r="2"   fill="#F4A7B9" opacity=".30"/>
  <circle cx="90"  cy="130" r="2"   fill="#F4A7B9" opacity=".28"/>
</svg>
